<?xml version="1.0" standalone="no"?>
<!DOCTYPE svg PUBLIC "-//W3C//DTD SVG 20010904//EN"
 "http://www.w3.org/TR/2001/REC-SVG-20010904/DTD/svg10.dtd">
<svg version="1.0" xmlns="http://www.w3.org/2000/svg"
 width="878.000000pt" height="1280.000000pt" viewBox="0 0 878.000000 1280.000000"
 preserveAspectRatio="xMidYMid meet">
<metadata>
Created by potrace 1.15, written by Peter Selinger 2001-2017
</metadata>
<g transform="translate(0.000000,1280.000000) scale(0.100000,-0.100000)"
fill="#FFFFFF" stroke="none">
<path d="M3530 12790 c-80 -5 -246 -13 -370 -19 -232 -11 -290 -18 -620 -77
-307 -56 -494 -105 -781 -208 -508 -181 -809 -348 -1032 -573 -190 -192 -261
-349 -323 -711 -19 -114 -43 -241 -54 -282 -20 -78 -30 -150 -55 -380 -8 -74
-34 -259 -59 -410 -58 -355 -100 -647 -121 -835 -39 -369 -47 -429 -66 -502
-12 -43 -26 -96 -32 -118 -5 -22 -11 -139 -11 -260 -1 -189 2 -230 18 -288 18
-64 19 -79 7 -215 -48 -563 -34 -2622 22 -3242 13 -142 13 -215 2 -475 -6
-139 -4 -177 15 -289 12 -71 34 -168 50 -216 45 -137 45 -139 120 -660 68
-471 71 -500 64 -605 -20 -280 -5 -396 63 -506 29 -48 36 -68 35 -107 -6 -231
8 -317 73 -440 246 -469 1436 -1085 2483 -1287 341 -65 524 -78 1122 -79 516
-1 765 13 1130 65 376 53 1026 193 1295 279 120 39 284 112 508 227 518 267
811 528 908 810 11 33 26 118 33 198 10 106 19 149 34 175 44 75 84 276 97
490 8 141 20 202 65 352 22 70 65 227 96 350 63 251 134 474 189 593 42 93 43
98 30 408 -6 151 -5 262 3 360 7 78 17 201 22 272 5 72 21 191 34 265 14 74
32 196 41 271 25 225 104 1253 115 1512 6 133 17 332 26 442 8 110 19 355 24
545 11 354 22 539 40 645 20 120 8 366 -25 535 -21 109 -39 256 -85 710 -43
422 -51 496 -75 645 -8 50 -22 180 -30 290 -11 157 -22 229 -49 345 -20 80
-42 176 -51 214 -8 38 -29 96 -46 130 -19 38 -39 106 -55 184 -31 154 -46 195
-135 357 -96 177 -86 165 -196 234 -54 34 -143 93 -198 132 -167 116 -643 344
-860 412 -44 13 -168 44 -275 67 -107 23 -262 58 -345 77 -229 52 -271 61
-385 77 -493 70 -1171 114 -1850 120 -239 3 -500 1 -580 -4z m1550 -91 c96 -5
285 -25 420 -44 135 -19 358 -50 495 -69 138 -19 270 -42 295 -51 25 -9 92
-27 150 -41 533 -130 864 -262 1285 -515 247 -148 391 -317 471 -553 42 -122
41 -266 -2 -283 -28 -10 -38 16 -45 110 -23 315 -227 551 -664 770 -227 113
-579 243 -940 346 -179 51 -232 63 -560 116 -635 104 -797 117 -1430 120 -334
1 -518 5 -555 13 -80 17 -147 17 -530 4 -535 -20 -720 -42 -1160 -138 -257
-56 -396 -92 -435 -113 -28 -15 -29 -16 -8 -19 13 -2 58 4 100 12 43 9 128 23
188 30 61 8 128 22 150 31 106 45 423 93 439 67 9 -15 -66 -34 -314 -81 -118
-22 -235 -47 -260 -56 -25 -9 -100 -29 -166 -45 -571 -136 -1073 -436 -1214
-725 -30 -59 -61 -182 -63 -240 -1 -47 32 -139 91 -253 55 -108 58 -141 8
-101 -30 23 -91 111 -125 178 -66 129 -31 343 89 537 77 125 146 194 276 274
115 72 134 90 134 130 0 69 209 174 650 328 302 105 566 181 735 211 137 25
669 55 1170 65 267 6 1145 -4 1325 -15z m-1102 -131 c-3 -7 -17 -15 -33 -20
-100 -26 -1055 -79 -1084 -59 -20 13 4 18 119 26 52 3 232 17 400 30 168 14
325 26 350 28 122 9 252 7 248 -5z m647 -88 c480 -20 792 -50 1075 -105 96
-19 278 -53 404 -75 275 -49 409 -83 456 -114 19 -13 58 -27 85 -30 28 -4 92
-20 143 -36 51 -16 112 -32 137 -36 36 -5 45 -10 45 -26 0 -19 -5 -20 -44 -15
-43 6 -733 189 -781 207 -15 6 -47 10 -73 10 -26 1 -65 5 -87 10 -235 51 -367
70 -695 99 -385 35 -653 44 -1230 38 -669 -6 -972 -28 -1390 -98 -196 -33
-233 -35 -249 -15 -19 22 14 41 69 38 26 -1 64 5 84 13 87 37 720 113 1116
134 215 12 662 12 935 1z m285 -180 c124 -6 250 -15 280 -20 30 -6 136 -15
235 -20 224 -12 386 -30 379 -41 -7 -12 -907 -11 -1249 1 -148 5 -481 12 -740
16 -503 7 -630 15 -440 27 61 4 184 14 275 22 91 8 188 16 215 18 122 8 841 6
1045 -3z m-190 -120 c908 -13 1388 -27 1546 -45 130 -15 224 -37 354 -80 l75
-25 -1525 5 c-1359 4 -3014 25 -3027 39 -3 3 8 8 23 11 16 4 74 18 129 32 158
41 236 52 414 61 240 13 1185 14 2011 2z m-3590 -89 c0 -12 -46 -41 -65 -41
-23 0 -18 25 8 38 27 13 57 15 57 3z m6245 -91 c412 -203 549 -310 646 -505
138 -280 63 -573 -179 -692 l-76 -38 -295 -6 c-163 -4 -1622 -7 -3243 -8
l-2947 -1 -86 77 c-47 43 -85 81 -85 86 0 5 112 7 263 3 144 -3 1680 -9 3413
-12 l3151 -6 35 83 c61 143 72 246 40 369 -28 106 -84 194 -191 301 -115 114
-242 201 -469 319 -90 47 -175 95 -190 108 l-27 22 30 -6 c17 -3 111 -45 210
-94z m-3165 -46 c1693 -5 2554 -16 2730 -34 58 -6 132 -17 165 -26 59 -15 295
-121 295 -133 0 -4 -37 -3 -82 1 -122 10 -3540 22 -3763 13 -133 -6 -181 -11
-160 -16 67 -19 848 -29 2426 -29 l1666 0 134 -67 c73 -38 135 -73 136 -79 2
-6 -4 -15 -14 -20 -10 -5 -278 -10 -597 -12 -404 -2 -576 -6 -568 -14 13 -13
466 -27 919 -28 l343 0 45 -57 c25 -32 44 -65 43 -73 -2 -9 -22 -18 -53 -23
-48 -8 -3374 -3 -5812 9 l-1172 5 6 67 c3 37 9 71 13 75 29 32 376 33 3035 6
1161 -12 1930 -5 1965 16 45 28 -61 30 -1520 31 -988 0 -1560 4 -1710 12 -124
6 -546 15 -938 18 -561 6 -710 10 -700 19 7 7 52 37 100 67 l87 55 863 7 c475
3 888 10 918 14 132 18 -33 24 -765 28 -756 4 -906 8 -889 23 5 5 45 22 89 40
44 17 121 52 170 76 l90 45 445 -5 c245 -3 1172 -7 2060 -11z m-3662 -683 c20
-33 56 -95 80 -139 24 -43 74 -118 112 -166 72 -90 77 -100 60 -111 -31 -19
-190 120 -261 229 -45 68 -59 111 -59 182 0 84 17 86 68 5z m5087 29 c1045 -5
1996 -13 2113 -16 l213 -6 11 -27 c5 -14 12 -40 15 -57 l5 -31 -908 -6 c-852
-5 -1390 -18 -1459 -36 -67 -17 398 -20 1350 -11 548 6 999 10 1000 8 2 -2 -5
-34 -15 -73 -14 -57 -22 -70 -41 -76 -13 -3 -775 -9 -1694 -13 -918 -4 -1902
-11 -2185 -16 -381 -6 -634 -5 -970 6 -250 7 -741 18 -1090 24 -722 12 -916
22 -969 48 -37 18 -71 65 -57 79 4 4 870 11 1924 14 1054 3 1919 6 1922 7 2 1
-1 7 -7 13 -16 16 -606 27 -2148 39 -1329 10 -1637 18 -1711 42 -38 13 -39 15
-42 61 l-3 49 1423 -6 c783 -4 2278 -11 3323 -16z m2667 -247 c57 -62 65 -163
18 -236 -29 -46 -54 -66 -67 -53 -3 3 2 33 12 66 18 59 18 60 -4 111 -23 57
-27 109 -9 127 17 17 21 16 50 -15z m-7803 -141 c6 -11 9 -44 8 -74 -2 -52 0
-58 47 -114 52 -63 73 -100 63 -111 -16 -16 -204 136 -213 172 -3 12 2 40 11
61 34 82 63 105 84 66z m80 -107 c33 -38 40 -65 17 -65 -18 0 -66 61 -66 83 0
26 15 20 49 -18z m165 -136 c31 -25 33 -39 5 -39 -28 0 -56 17 -69 40 -9 17
-8 20 13 20 14 0 36 -9 51 -21z m4546 -25 c1185 -3 2182 -9 2215 -12 l60 -8
-40 -18 c-22 -10 -89 -37 -150 -60 l-110 -43 -690 -12 c-713 -12 -855 -18
-800 -33 59 -16 555 -28 910 -22 252 5 357 3 350 -4 -28 -29 -377 -110 -570
-133 -128 -15 -3471 -13 -3708 2 -109 7 -179 17 -225 31 -37 12 -123 36 -192
53 l-125 32 395 6 c217 4 802 9 1300 12 498 3 988 10 1089 15 178 8 242 21
170 35 -19 3 -747 5 -1619 3 l-1585 -3 -155 56 c-211 77 -254 95 -258 107 -2
7 242 9 790 6 436 -2 1763 -7 2948 -10z m3040 -98 c-11 -55 -56 -111 -94 -118
-32 -5 -28 17 14 73 22 30 45 72 51 94 6 22 16 46 22 54 17 21 21 -36 7 -103z
m-7762 9 c56 -50 63 -65 32 -65 -56 0 -140 70 -140 117 0 23 1 23 28 9 15 -8
51 -36 80 -61z m324 -2 c6 -8 8 -16 5 -19 -12 -12 -97 48 -97 68 0 11 76 -30
92 -49z m561 4 c56 -58 119 -102 162 -113 26 -7 27 -6 20 26 l-7 33 44 -6 c24
-3 145 -38 268 -77 124 -38 252 -75 285 -82 33 -6 105 -24 160 -39 167 -46
292 -76 456 -108 598 -117 1479 -192 2094 -178 298 7 374 13 645 57 320 51
700 90 700 72 0 -16 -52 -29 -205 -51 -371 -54 -1135 -131 -1310 -131 -114 0
-164 -12 -105 -24 124 -24 671 9 1300 80 221 25 748 120 855 154 61 20 214 44
223 35 10 -10 -7 -16 -199 -71 -328 -93 -637 -149 -1219 -218 -349 -42 -1019
-73 -1330 -63 -263 10 -581 26 -710 37 -137 12 -521 72 -675 105 -60 13 -127
26 -147 30 -58 9 -719 199 -848 243 -162 56 -400 146 -450 172 -61 31 -130 98
-130 126 0 24 23 43 53 44 10 0 42 -24 70 -53z m-203 -70 c127 -59 421 -177
545 -217 55 -18 148 -52 207 -76 74 -30 218 -71 470 -133 831 -205 1030 -233
1889 -261 584 -20 1074 9 1808 106 199 26 251 29 251 15 0 -13 -16 -17 -145
-41 -242 -45 -469 -80 -587 -89 -448 -38 -1129 -65 -1453 -58 -323 7 -962 60
-1050 87 -16 5 -129 28 -250 50 -328 61 -764 178 -1027 275 -402 148 -796 343
-816 403 -5 15 6 11 158 -61z m-444 23 c70 -40 166 -129 140 -130 -46 -1 -179
90 -207 141 -14 28 6 24 67 -11z m68 -157 c99 -59 216 -125 258 -147 l78 -40
24 23 c30 28 23 30 241 -66 438 -194 1149 -414 1332 -413 l48 1 -28 15 c-38
20 -107 42 -412 129 -542 155 -986 324 -959 366 9 15 53 3 168 -46 55 -24 175
-66 266 -94 91 -27 219 -66 285 -86 392 -119 1129 -266 1545 -309 277 -29 582
-39 985 -33 748 12 1382 74 1826 177 130 31 185 37 174 21 -14 -23 -439 -140
-600 -165 -255 -40 -518 -67 -740 -76 -132 -6 -285 -15 -340 -21 -54 -6 -198
-19 -318 -29 -120 -10 -221 -21 -224 -23 -13 -13 277 -18 537 -8 328 12 460
22 694 52 165 21 334 27 356 14 20 -12 -27 -33 -101 -44 -35 -6 -176 -22 -314
-36 -326 -34 -647 -74 -654 -81 -3 -3 35 -3 84 1 50 3 164 10 255 15 91 6 246
19 344 30 214 24 240 24 256 5 16 -19 21 -19 -370 -59 -429 -45 -624 -55
-1170 -62 -401 -6 -469 -4 -690 15 -272 24 -449 48 -632 86 -68 15 -234 48
-370 75 -377 75 -578 131 -808 225 -58 24 -137 52 -175 64 -69 20 -89 31 -266
142 -48 30 -101 62 -119 72 -28 15 -30 19 -19 33 11 14 9 20 -15 41 -32 27
-48 23 -22 -6 38 -42 -16 -37 -124 12 -217 98 -556 337 -479 337 6 0 93 -48
193 -107z m-382 62 c12 -14 26 -25 32 -25 16 0 123 -67 191 -120 77 -60 204
-134 430 -252 226 -118 385 -194 435 -209 45 -14 52 -37 25 -89 -24 -47 -42
-178 -92 -690 -45 -466 -47 -498 -48 -815 0 -181 3 -342 8 -357 5 -21 14 -28
31 -28 39 0 46 43 56 350 9 272 69 1157 90 1325 20 158 42 208 97 213 16 2 90
-18 164 -43 184 -63 587 -172 684 -185 44 -6 103 -16 130 -21 28 -6 86 -14
130 -18 45 -5 115 -20 157 -35 80 -27 279 -65 488 -91 68 -9 126 -18 128 -20
2 -1 -4 -144 -12 -316 -44 -898 -60 -1413 -47 -1553 6 -78 12 -102 27 -113 26
-19 31 -17 43 20 19 52 29 306 41 979 14 852 22 944 84 968 16 6 57 6 113 -1
48 -5 259 -14 468 -18 279 -7 389 -12 413 -22 29 -12 36 -12 60 3 64 41 109
58 157 58 59 0 128 -29 147 -62 8 -14 15 -74 19 -153 4 -71 11 -195 17 -275
16 -207 32 -780 32 -1160 0 -302 5 -368 27 -346 13 12 15 947 3 1216 -6 135
-17 308 -25 385 -18 175 -19 312 -2 345 7 14 24 31 39 38 34 16 189 31 230 23
31 -7 33 -10 31 -47 -2 -21 2 -73 7 -114 23 -166 30 -364 40 -1015 10 -669 15
-780 35 -780 20 0 26 146 20 495 -13 776 -35 1319 -60 1412 -10 40 -10 55 -2
60 22 14 112 29 282 48 200 23 219 26 307 52 84 25 105 16 112 -45 2 -23 9
-168 15 -322 6 -154 15 -311 21 -350 23 -170 51 -1116 36 -1237 -7 -52 -10
-57 -39 -68 -18 -6 -61 -14 -97 -17 -51 -4 -68 -2 -78 9 -17 21 -29 219 -37
578 -14 684 -42 1205 -72 1328 -3 12 -10 22 -16 22 -13 0 -3 -554 17 -915 21
-382 27 -635 18 -860 l-7 -200 -35 -3 c-19 -2 -141 -21 -270 -42 -292 -49
-428 -67 -553 -76 l-97 -7 0 549 c0 775 -18 1283 -51 1407 -11 42 -36 49 -45
13 -3 -14 0 -150 6 -303 7 -173 11 -539 8 -970 -3 -604 -5 -694 -18 -699 -79
-33 -995 -15 -1338 27 -146 17 -794 143 -1052 203 -80 19 -171 40 -202 46 -31
6 -67 19 -80 29 -13 10 -49 21 -83 24 -79 8 -401 97 -528 146 -373 143 -613
257 -698 329 -35 30 -40 39 -35 66 3 17 10 157 16 311 16 415 67 1036 115
1390 8 60 15 128 15 150 0 53 -24 87 -58 83 -21 -2 -29 -11 -38 -45 -16 -55
-37 -217 -73 -578 -98 -959 -107 -1195 -46 -1286 46 -70 31 -76 -62 -22 l-63
37 0 112 c0 275 45 865 105 1364 33 280 39 388 25 425 -24 64 -41 -14 -70
-325 -12 -124 -34 -344 -50 -490 -34 -315 -46 -455 -65 -774 -8 -132 -19 -244
-24 -249 -28 -28 -211 125 -211 176 0 12 4 60 10 107 5 47 16 207 25 355 33
581 53 795 91 979 13 65 24 137 24 160 0 22 5 58 11 79 8 31 14 38 32 35 42
-6 36 -142 -24 -633 -45 -363 -59 -553 -65 -860 -5 -270 -1 -317 24 -301 17
10 21 63 37 416 17 379 35 589 71 835 39 270 54 403 54 502 0 106 -10 140 -44
153 -14 5 -37 29 -52 52 -35 56 -46 62 -66 38 -20 -25 -28 -60 -74 -345 -77
-474 -101 -735 -114 -1205 -5 -173 -9 -316 -9 -317 -1 -2 -10 -3 -20 -3 -11 0
-29 12 -40 26 -20 26 -21 38 -19 238 1 135 -2 220 -9 236 -10 25 -11 25 -22
-15 -6 -22 -13 -94 -17 -160 -7 -134 -19 -198 -37 -192 -19 6 -23 69 -15 252
14 364 65 896 98 1025 11 41 33 154 50 250 30 174 65 334 76 351 11 18 55 9
76 -16z m557 -67 c19 -13 51 -28 71 -33 25 -8 35 -16 35 -30 0 -29 -40 -31
-74 -3 -16 13 -43 31 -60 40 -30 16 -43 48 -20 48 7 0 28 -10 48 -22z m7396
-88 c10 -11 26 -59 36 -107 35 -171 88 -588 104 -818 3 -49 13 -146 20 -215
29 -249 34 -316 26 -358 -8 -41 -34 -82 -46 -71 -12 12 -37 290 -45 489 -5
137 -13 237 -23 275 -9 33 -25 132 -37 220 -11 88 -31 225 -44 305 -32 195
-38 245 -30 275 7 30 15 31 39 5z m-422 3 c11 -10 -44 -63 -65 -63 -21 0 -25
39 -6 58 13 13 60 16 71 5z m-1900 -43 c-26 -11 -292 -44 -513 -64 -539 -50
-1186 -75 -1475 -57 -412 26 -918 82 -900 100 7 7 1704 27 2440 29 275 0 461
-3 448 -8z m472 -19 c-7 -13 -81 -24 -125 -19 l-35 4 35 11 c44 14 133 16 125
4z m1744 -43 c16 -54 39 -205 61 -410 12 -106 30 -232 41 -280 32 -147 51
-392 53 -680 0 -146 -2 -270 -7 -274 -14 -14 -27 12 -37 72 -5 32 -19 196 -30
364 -34 502 -40 560 -84 775 -28 136 -40 175 -57 175 -8 0 -10 -16 -6 -52 3
-29 22 -195 41 -368 43 -381 56 -570 56 -783 0 -164 -6 -195 -33 -184 -20 7
-25 49 -31 262 -8 242 -47 631 -111 1105 l-25 185 68 62 c37 34 72 62 79 63 6
0 16 -15 22 -32z m-703 -100 c10 -16 -41 -55 -96 -72 -51 -17 -130 -30 -130
-23 0 10 106 70 155 88 61 22 62 22 71 7z m453 -120 c6 -29 15 -88 21 -132 5
-43 19 -122 29 -175 39 -194 80 -717 88 -1126 4 -236 3 -283 -10 -299 -8 -11
-21 -17 -30 -13 -22 8 -26 70 -37 512 -10 379 -18 498 -65 950 -27 258 -30
335 -16 335 5 0 14 -24 20 -52z m-1109 -7 c0 -5 -6 -13 -13 -19 -14 -12 -148
-42 -187 -42 -22 0 -23 1 -8 16 35 36 208 73 208 45z m1009 -74 c17 -96 79
-703 91 -882 13 -203 13 -799 0 -844 -9 -32 -24 -50 -42 -51 -5 0 -8 147 -8
328 0 412 -29 923 -76 1354 -9 81 -14 154 -10 163 12 31 33 -2 45 -68z m-155
37 c9 -3 20 -22 25 -43 23 -86 72 -654 95 -1101 29 -553 34 -695 24 -713 -13
-26 -127 -107 -149 -107 -11 0 -20 9 -23 23 -3 12 -7 139 -10 282 -8 353 -37
737 -87 1140 -33 272 -61 405 -86 405 -21 0 -16 -113 26 -577 22 -235 45 -500
50 -588 15 -222 41 -665 41 -703 0 -29 -5 -33 -106 -82 -59 -28 -184 -79 -278
-114 -248 -92 -306 -110 -318 -98 -5 5 -13 132 -18 298 -17 564 -114 1571
-155 1612 -12 13 -35 -31 -35 -68 0 -19 4 -71 10 -115 47 -380 120 -1699 97
-1758 -9 -23 -54 -22 -61 1 -10 37 -16 137 -26 412 -26 738 -44 1011 -85 1304
-14 99 -25 181 -25 183 0 3 -10 3 -22 1 -14 -2 -26 -14 -32 -31 -10 -28 -6
-73 39 -457 30 -259 47 -567 52 -970 2 -228 1 -433 -4 -454 -9 -43 -27 -57
-37 -29 -4 10 -14 164 -21 343 -29 650 -91 1413 -126 1543 -5 20 -14 37 -19
37 -26 0 -24 -210 5 -535 32 -360 92 -1403 81 -1430 -3 -10 -19 -15 -45 -15
-50 0 -51 2 -51 220 0 477 -67 1552 -106 1707 -8 31 -32 29 -45 -4 -9 -21 -7
-74 5 -208 28 -312 38 -524 66 -1379 6 -170 13 -320 16 -332 5 -19 1 -24 -23
-29 -15 -4 -34 -8 -40 -10 -28 -9 -33 39 -33 297 0 408 -26 1025 -58 1398 -21
250 -21 295 -1 315 10 10 46 20 89 26 40 5 235 49 435 99 199 49 369 90 378
90 21 0 24 -18 31 -160 3 -63 12 -153 21 -200 40 -232 91 -794 106 -1175 6
-154 12 -290 15 -302 9 -47 116 -11 160 54 55 82 79 290 71 618 -8 319 -32
577 -102 1104 -20 153 -15 170 68 211 71 35 164 69 189 70 9 0 23 -3 32 -6z
m-987 -119 c-21 -18 -39 -25 -70 -25 l-42 1 40 24 c22 14 54 25 70 25 l30 -1
-28 -24z m-177 -44 c0 -29 -149 -57 -165 -31 -3 6 -5 10 -3 10 2 0 21 7 43 15
45 16 125 20 125 6z m790 -30 c0 -21 4 -61 10 -88 47 -251 97 -872 106 -1323
6 -287 1 -362 -25 -346 -18 12 -18 4 -51 736 -12 253 -35 517 -51 588 -5 26
-15 96 -20 157 -5 60 -19 149 -30 198 -12 48 -18 94 -15 102 3 9 19 15 41 15
34 0 35 -1 35 -39z m-1152 -40 c11 -7 9 -13 -9 -30 -22 -20 -79 -30 -79 -13 0
16 45 48 70 51 3 0 11 -3 18 -8z m2352 -1232 c13 -91 -4 -252 -31 -296 -13
-21 -28 -33 -38 -31 -13 3 -15 14 -12 67 2 44 -1 66 -10 71 -10 7 -10 17 -1
47 6 21 14 71 18 112 5 53 12 79 26 93 27 27 37 14 48 -63z m-8448 -18 c137
-128 305 -236 685 -440 311 -167 786 -356 1163 -464 469 -135 612 -171 865
-217 352 -65 494 -85 758 -110 120 -11 248 -25 285 -30 266 -38 861 -13 1667
70 283 30 352 42 797 140 496 111 834 217 1216 382 73 32 96 38 105 29 9 -10
6 -17 -13 -33 -107 -88 -704 -302 -1067 -383 -65 -15 -176 -42 -248 -61 -363
-95 -1053 -203 -1400 -219 -148 -7 -185 -13 -185 -27 0 -8 58 -9 213 -2 116 5
286 9 377 9 91 1 176 5 190 9 16 4 39 1 62 -9 87 -36 282 -9 328 45 39 46 141
75 180 50 13 -8 12 -11 -4 -23 -18 -13 -18 -15 -3 -38 10 -13 17 -27 17 -32 0
-39 -403 -97 -781 -113 -129 -6 -164 -4 -195 8 -59 24 -193 31 -356 19 -178
-13 -243 -26 -269 -54 -20 -22 -23 -22 -497 -25 -533 -3 -599 1 -932 65 -102
19 -267 50 -367 68 -271 51 -515 114 -938 245 -580 180 -1056 389 -1383 607
-257 172 -377 293 -291 293 28 0 24 12 -17 51 -44 42 -71 92 -85 159 -13 59
-5 120 16 120 7 0 56 -40 107 -89z m8168 -5 c0 -48 -65 -98 -85 -66 -8 13 30
76 53 89 22 12 32 5 32 -23z m30 -334 c0 -34 -196 -205 -318 -278 -42 -25
-101 -61 -131 -79 -29 -19 -103 -55 -165 -80 -61 -26 -157 -71 -212 -101 -189
-100 -446 -187 -770 -260 -88 -19 -192 -46 -232 -60 -75 -25 -142 -32 -142
-14 0 15 61 50 87 50 11 0 90 20 175 45 85 24 215 58 289 74 74 16 153 39 176
50 23 12 84 36 135 55 116 42 136 51 388 171 113 53 232 108 265 122 32 14 84
44 115 68 30 23 69 49 85 58 17 8 64 44 105 79 116 98 150 121 150 100z m120
-37 c0 -32 -91 -131 -147 -159 -34 -17 -73 -21 -73 -8 0 9 113 120 154 150 26
20 66 30 66 17z m-8230 -135 c183 -137 185 -139 172 -182 -15 -48 -20 -86 -44
-363 -27 -312 -35 -937 -19 -1568 18 -697 38 -987 135 -1939 3 -26 1 -50 -3
-52 -9 -6 -53 39 -70 71 -6 12 -11 48 -11 80 0 32 -5 88 -10 124 -49 340 -91
1158 -111 2174 -13 614 -5 1065 22 1245 16 111 9 299 -14 333 -9 15 -22 27
-27 27 -20 0 -40 -49 -51 -121 -17 -114 -23 -1098 -10 -1593 28 -1088 67
-1747 127 -2143 6 -41 6 -43 -19 -43 -43 0 -59 46 -67 186 -7 113 -19 164 -39
164 -13 0 -21 -39 -22 -115 0 -38 -4 -79 -9 -90 -7 -19 -8 -18 -18 7 -34 84
-68 371 -82 683 -6 127 -18 320 -28 430 -14 172 -17 340 -17 1185 0 935 1
1000 23 1285 23 303 26 325 38 325 4 0 73 -49 154 -110z m7799 34 c-38 -39
-169 -108 -197 -102 -18 4 50 53 153 110 69 38 86 36 44 -8z m557 -239 c-7
-233 -18 -435 -66 -1160 -47 -703 -57 -825 -99 -1185 -6 -47 -17 -177 -26
-290 -40 -518 -125 -1105 -168 -1158 -19 -24 -27 3 -17 63 5 33 14 150 20 260
5 110 13 227 15 260 6 63 98 986 115 1140 43 412 109 1533 80 1380 -12 -63
-56 -501 -70 -700 -6 -82 -20 -207 -30 -277 -11 -70 -20 -155 -20 -190 0 -69
-18 -286 -49 -583 -11 -104 -25 -262 -31 -350 -5 -88 -26 -266 -44 -395 -19
-129 -44 -316 -56 -415 -25 -216 -39 -305 -50 -305 -22 0 -26 214 -9 449 5 79
27 273 49 430 47 346 65 511 85 781 8 113 24 304 34 425 49 542 63 696 86 935
31 333 35 396 44 704 6 233 8 259 25 271 24 18 43 9 51 -23 4 -15 3 -153 -1
-308 -5 -202 -4 -283 4 -288 7 -4 14 3 17 19 3 14 7 35 10 48 2 12 11 149 20
305 16 289 26 374 47 399 10 13 14 12 26 -4 12 -15 13 -57 8 -238z m-411 96
c19 -32 -438 -294 -707 -405 -160 -66 -716 -231 -821 -243 -44 -5 -49 -4 -45
13 4 23 40 35 196 69 196 42 401 103 483 145 42 21 172 82 290 135 118 53 255
119 304 148 95 54 275 147 287 147 4 0 9 -4 13 -9z m-7450 -181 c132 -65 273
-130 313 -144 81 -29 114 -44 123 -58 3 -5 2 -30 -4 -56 -15 -76 -20 -1796 -8
-2397 15 -714 31 -1007 77 -1425 17 -151 33 -210 57 -210 24 0 26 20 11 156
-13 122 -42 530 -81 1139 -14 220 -17 423 -17 1100 0 794 7 1096 35 1427 6 70
16 149 22 175 12 45 14 48 42 45 45 -5 50 -15 36 -74 -42 -180 -26 -3001 19
-3202 5 -22 14 -120 20 -216 6 -96 18 -249 27 -340 29 -316 28 -300 6 -300
-11 0 -55 16 -97 35 -43 19 -82 35 -88 35 -20 0 -132 78 -175 122 l-41 43 -16
125 c-69 555 -112 2158 -86 3193 12 480 9 626 -11 657 -42 66 -58 -234 -66
-1195 -8 -1059 11 -1780 62 -2341 28 -302 31 -404 13 -404 -17 0 -139 68 -165
92 -51 47 -91 269 -113 623 -5 83 -14 206 -19 275 -6 69 -20 292 -32 495 -18
332 -21 471 -20 1370 0 550 -2 1015 -5 1033 -11 59 -25 19 -34 -94 -38 -461
-40 -1557 -5 -2199 41 -762 74 -1149 111 -1312 19 -83 15 -109 -16 -93 -58 31
-83 167 -121 650 -11 145 -24 283 -29 305 -18 82 -31 426 -39 1074 -9 620 0
1756 14 1883 16 144 15 139 38 133 12 -3 130 -60 262 -125z m7572 -279 c-3
-250 -12 -434 -31 -661 -14 -173 -37 -452 -51 -620 -46 -569 -115 -1354 -130
-1481 -8 -70 -24 -173 -35 -230 -11 -57 -36 -227 -55 -378 -33 -263 -47 -321
-76 -321 -5 0 -12 6 -15 14 -5 13 40 412 96 851 39 310 54 449 90 860 17 193
46 521 65 730 47 520 68 806 90 1230 10 190 24 366 31 377 21 34 26 -49 21
-371z m-163 227 c3 -13 6 -106 6 -208 0 -610 -229 -3015 -345 -3619 -13 -69
-25 -139 -27 -156 -2 -23 -12 -35 -43 -52 -42 -24 -55 -23 -49 5 2 9 19 89 38
177 54 246 103 647 225 1835 64 613 141 1656 141 1895 0 99 11 145 34 145 7 0
16 -10 20 -22z m-148 -85 c9 -35 -3 -406 -21 -681 -17 -253 -25 -352 -65 -792
-16 -179 -41 -464 -55 -635 -51 -612 -160 -1487 -211 -1688 -8 -33 -15 -86
-15 -120 -1 -70 -11 -97 -39 -97 -30 0 -27 41 30 431 77 525 186 1524 225
2074 9 121 24 324 35 450 24 286 38 502 45 715 6 166 20 326 31 355 10 24 33
17 40 -12z m-140 -100 c9 -59 -10 -484 -36 -818 -31 -391 -109 -1228 -126
-1355 -8 -63 -19 -185 -25 -270 -5 -85 -20 -236 -34 -335 -13 -99 -41 -319
-60 -490 -77 -665 -78 -671 -112 -683 -17 -5 -16 31 3 148 24 149 33 229 49
439 20 261 42 478 65 636 10 72 26 209 34 305 32 350 37 408 56 575 44 391 91
989 111 1430 10 233 9 313 -7 391 -7 36 21 74 55 74 16 0 21 -10 27 -47z
m-140 -55 c16 -51 -60 -1303 -106 -1738 -10 -102 -29 -293 -40 -425 -12 -132
-35 -355 -51 -495 -16 -140 -45 -410 -64 -600 -52 -512 -90 -700 -140 -700
-19 0 -18 5 0 110 26 148 63 427 90 675 14 132 39 362 55 510 17 149 35 338
40 420 6 83 17 191 25 240 16 101 33 294 70 785 59 792 69 1097 39 1168 -14
35 -14 38 7 54 30 25 66 23 75 -4z m-5981 -123 c200 -70 388 -125 428 -125 19
0 84 -15 144 -34 59 -18 161 -46 226 -61 64 -15 127 -35 139 -45 21 -17 22
-21 10 -66 -35 -139 -55 -1682 -22 -1647 24 24 47 500 56 1158 3 253 10 477
15 497 5 21 18 42 28 47 12 7 66 1 175 -18 86 -16 159 -31 162 -33 2 -3 0 -51
-6 -109 -30 -324 -48 -1885 -22 -1911 10 -10 15 -10 22 2 6 9 10 203 10 470 0
318 5 497 15 595 25 249 28 355 15 540 -10 144 -10 200 0 281 7 56 16 107 19
113 8 13 359 -13 374 -28 8 -8 7 -32 -1 -83 -21 -126 -33 -740 -34 -1783 -1
-1077 4 -1343 29 -1352 8 -3 19 -1 26 6 8 8 11 238 13 813 1 565 6 905 18
1148 9 190 21 525 26 745 6 220 13 414 16 430 10 47 32 65 79 65 22 0 46 -5
53 -12 7 -7 12 -39 12 -75 0 -91 13 -83 63 39 l15 36 324 -5 c295 -5 647 6
752 24 l39 6 -6 -284 c-4 -156 -11 -342 -16 -414 -6 -71 -15 -263 -21 -425
-27 -734 -62 -1474 -90 -1905 -35 -535 -41 -654 -43 -862 -2 -223 -3 -232 -22
-238 -65 -18 -388 -28 -606 -17 -127 6 -232 12 -234 14 -1 2 2 207 7 456 10
440 7 575 -13 555 -15 -15 -29 -339 -29 -683 l0 -315 -144 -1 -144 -1 -6 30
c-3 16 -6 86 -6 156 -1 210 -19 597 -30 626 -12 32 -39 30 -58 -5 -11 -20 -12
-98 -7 -414 l6 -389 -28 7 c-15 3 -66 11 -113 17 -173 22 -174 22 -188 52 -11
22 -16 25 -32 17 -10 -6 -22 -15 -25 -20 -11 -18 -71 -11 -105 12 -22 15 -38
38 -48 66 -16 49 -42 57 -42 13 0 -50 -16 -54 -163 -47 -72 4 -140 9 -149 12
-15 4 -18 17 -18 66 0 33 -11 153 -25 267 -52 420 -54 477 -66 1526 -11 923
-10 1024 6 1305 19 323 25 845 11 895 -8 29 -8 29 -17 8 -29 -76 -49 -741 -50
-1673 0 -733 -10 -1134 -27 -1166 -8 -16 -8 -34 3 -75 15 -57 35 -238 61 -564
15 -193 48 -482 60 -531 5 -20 2 -24 -15 -24 -49 0 -173 24 -176 34 -2 6 -9
180 -15 386 -6 206 -17 483 -25 615 -17 286 -20 1902 -5 2640 6 279 6 463 0
469 -5 5 -19 3 -34 -7 -49 -33 -62 -195 -76 -967 -19 -1014 20 -2608 70 -2916
6 -32 10 -88 10 -123 l0 -64 -59 6 c-67 6 -199 47 -248 77 -39 23 -36 4 -68
405 -65 824 -79 1262 -71 2230 8 879 -7 1496 -35 1468 -23 -23 -31 -213 -36
-853 -9 -1156 38 -2529 103 -3049 16 -130 11 -172 -23 -186 -25 -9 -63 23 -85
71 -23 53 -41 63 -68 39 -17 -16 -25 -16 -66 -5 -25 7 -52 22 -59 34 -19 28
-30 129 -60 516 -54 711 -85 1691 -85 2690 0 400 14 902 26 921 2 4 59 -14
127 -41 67 -26 145 -56 172 -65z m5827 -54 c8 -90 7 -199 -1 -404 -17 -419
-68 -1171 -96 -1427 -14 -124 -52 -481 -85 -795 -33 -313 -69 -640 -80 -725
-32 -237 -72 -421 -102 -457 -15 -18 -31 -4 -24 21 24 98 115 817 121 961 3
66 15 178 26 249 19 119 58 468 94 826 36 357 74 1068 82 1515 3 223 10 365
16 373 23 29 37 -13 49 -137z m-152 -83 c0 -233 -33 -883 -60 -1173 -25 -275
-37 -416 -55 -668 -19 -264 -55 -595 -105 -952 -21 -154 -57 -442 -80 -640
-23 -198 -48 -374 -55 -392 -10 -24 -29 -40 -72 -61 -119 -60 -174 -64 -140
-11 32 50 49 147 92 529 56 502 73 687 135 1435 103 1263 129 2057 65 1993
-20 -19 -34 -198 -70 -903 -46 -876 -132 -1847 -240 -2702 -19 -150 -35 -302
-35 -337 0 -61 -2 -66 -27 -80 -41 -21 -193 -69 -199 -63 -3 3 2 42 10 87 22
114 61 469 91 825 14 165 32 347 40 405 43 308 94 1337 66 1354 -24 15 -32
-57 -131 -1189 -89 -1021 -111 -1228 -136 -1281 -10 -21 -14 -57 -12 -113 3
-79 2 -84 -23 -105 -32 -27 -97 -40 -133 -26 -26 9 -26 11 -26 113 0 101 23
424 75 1037 35 413 82 1084 95 1345 6 121 16 308 22 415 6 107 13 395 15 640
3 289 8 449 15 457 6 7 26 13 46 13 l35 0 -7 -147 c-3 -82 -8 -254 -11 -383
-17 -712 -51 -1355 -100 -1865 -32 -337 -114 -1384 -117 -1500 -2 -72 0 -90
11 -90 27 0 42 83 67 370 13 160 36 400 50 535 64 622 74 726 84 885 6 94 17
262 25 375 43 605 54 834 65 1344 5 247 13 436 19 457 16 53 43 71 134 90 45
9 95 20 111 24 27 7 29 6 23 -16 -14 -51 -28 -229 -47 -629 -45 -938 -41 -879
-175 -2375 -26 -280 -60 -602 -76 -715 -30 -206 -31 -250 -4 -250 33 0 45 49
89 385 55 414 67 527 106 955 95 1061 138 1716 156 2402 l7 257 61 22 c161 56
164 56 176 -10 8 -47 -4 -481 -20 -691 -5 -74 -15 -238 -20 -365 -21 -484 -45
-824 -80 -1146 -11 -96 -28 -272 -40 -390 -15 -163 -114 -998 -144 -1225 -5
-38 8 -64 24 -48 17 17 78 378 95 561 14 153 44 393 65 530 32 200 66 556 110
1143 74 1002 81 1121 86 1435 3 259 6 291 21 303 9 6 25 12 35 12 17 0 18 -13
18 -192z m-956 -143 c0 -27 -8 -342 -18 -699 -16 -636 -20 -715 -50 -1061 -9
-93 -25 -309 -36 -480 -35 -529 -49 -715 -87 -1188 -32 -393 -35 -462 -24
-490 25 -61 24 -72 -4 -85 -30 -14 -243 -58 -326 -68 -49 -6 -59 -4 -78 15
-27 27 -28 21 14 513 42 508 68 858 95 1268 24 373 47 687 60 825 18 188 30
580 31 984 1 379 -3 442 -26 419 -16 -16 -26 -166 -40 -573 -20 -589 -30 -769
-80 -1360 -25 -292 -32 -397 -60 -865 -9 -140 -25 -358 -35 -485 -10 -126 -24
-320 -30 -430 -18 -344 -16 -327 -39 -346 -20 -16 -186 -48 -196 -37 -8 7 55
1216 100 1918 3 47 12 254 20 460 9 206 25 530 36 720 22 390 36 912 25 956
-17 67 -27 -16 -36 -303 -11 -344 -18 -476 -30 -588 -14 -123 -28 -379 -40
-715 -19 -543 -55 -1143 -119 -1970 -30 -384 -37 -432 -66 -476 -21 -33 -62
-41 -295 -59 -113 -8 -224 -18 -248 -21 l-42 -7 5 69 c3 38 12 170 21 294 8
124 22 293 30 375 8 83 19 193 24 245 5 52 14 232 20 400 30 880 36 1026 70
1740 6 118 14 375 19 570 10 407 13 422 78 438 35 8 392 36 637 49 l98 6 -6
-69 c-3 -38 -11 -180 -16 -316 -5 -136 -14 -300 -20 -365 -5 -65 -14 -228 -20
-363 -15 -339 -38 -770 -50 -925 -5 -71 -19 -281 -30 -465 -11 -184 -29 -442
-40 -573 -40 -484 -47 -927 -15 -927 21 0 24 21 35 253 20 428 119 1878 145
2117 7 74 16 239 20 365 12 484 49 1258 61 1276 3 6 96 21 208 33 l29 3 -7
-261 c-19 -725 -73 -1753 -116 -2191 -11 -110 -26 -301 -35 -425 -18 -272 -22
-318 -40 -485 -33 -297 -48 -665 -26 -665 33 0 54 121 76 435 9 127 34 426 55
665 73 805 107 1364 130 2120 14 469 28 728 40 772 14 50 34 68 77 68 32 0 35
-2 29 -22 -25 -88 -70 -822 -96 -1563 -15 -413 -90 -1422 -150 -1997 -17 -157
-30 -318 -30 -357 0 -64 2 -72 25 -87 20 -13 28 -14 40 -4 41 34 67 197 95
598 11 161 31 446 45 635 13 188 36 536 50 772 14 237 27 450 30 475 9 77 35
655 49 1095 8 239 19 432 25 448 8 21 17 28 34 25 20 -3 22 -9 21 -53z m-1469
5 c9 -15 -42 -31 -73 -24 -36 9 -43 14 -37 25 8 12 102 12 110 -1z m-4851
-2929 c38 -40 29 -63 -21 -59 -30 2 -38 8 -46 31 -20 60 20 77 67 28z m96
-153 c5 -13 11 -36 15 -53 4 -20 33 -55 86 -105 43 -41 79 -83 79 -92 0 -27
-23 -14 -146 78 -60 46 -115 84 -121 84 -23 0 -34 27 -21 55 23 50 92 71 108
33z m8070 -33 c14 -16 10 -47 -6 -52 -7 -2 -19 3 -28 12 -12 12 -13 21 -6 36
13 23 23 24 40 4z m-7939 -23 c24 -16 100 -70 169 -122 152 -113 322 -227 453
-305 299 -175 938 -431 1298 -519 268 -65 986 -180 1354 -216 155 -15 862 -32
1050 -26 328 12 496 32 1009 117 435 73 645 124 928 228 59 22 164 29 153 11
-16 -25 -98 -62 -152 -67 -33 -3 -82 -18 -113 -33 -96 -48 -350 -122 -645
-189 -124 -28 -557 -98 -750 -120 -278 -33 -894 -48 -1277 -32 -312 13 -421
23 -616 56 -79 14 -169 25 -200 25 -73 0 -194 20 -405 64 -191 41 -187 41
-187 22 0 -15 30 -26 75 -26 17 0 71 -9 120 -20 311 -66 388 -81 550 -104 215
-30 417 -51 655 -67 237 -15 835 -6 990 15 63 8 212 25 330 36 282 27 597 65
740 90 130 23 367 83 511 129 113 37 149 39 149 12 0 -30 -23 -41 -120 -62
-109 -22 -361 -105 -387 -126 -17 -13 -16 -14 7 -9 14 2 36 8 49 12 40 12 21
-27 -20 -42 -54 -18 -323 -72 -452 -90 -61 -8 -161 -24 -222 -34 -355 -63
-628 -80 -1245 -80 -457 0 -722 11 -855 35 -44 8 -145 21 -225 30 -201 22
-401 58 -560 100 -74 19 -245 64 -380 99 -360 94 -651 205 -980 372 -164 83
-498 286 -575 348 -22 18 -59 45 -82 60 -43 26 -55 49 -30 59 8 3 54 -23 103
-58 234 -168 593 -369 829 -465 284 -115 475 -174 497 -152 13 13 -57 61 -121
82 -22 7 -41 17 -41 21 0 8 17 3 145 -39 54 -18 362 -93 442 -108 18 -4 33 -3
33 0 0 12 -64 34 -288 101 -244 72 -416 141 -697 280 -530 262 -1075 625
-1075 715 0 26 8 25 61 -8z m7959 -96 c0 -36 -39 -155 -68 -209 -19 -36 -50
-67 -117 -117 -109 -82 -246 -167 -290 -179 -17 -4 -60 -30 -96 -56 -35 -26
-182 -106 -326 -178 -231 -116 -268 -131 -322 -135 -68 -5 -80 8 -31 33 16 8
81 37 143 64 145 61 552 275 592 311 17 15 58 42 92 60 94 49 174 130 129 130
-14 0 -49 -22 -178 -113 -36 -26 -83 -53 -105 -61 -21 -8 -69 -33 -108 -56
-131 -80 -233 -121 -223 -87 7 19 70 58 271 165 183 98 263 149 301 191 22 24
64 28 72 6 4 -8 12 -15 19 -15 23 0 28 20 10 40 -17 19 -17 21 8 54 15 18 54
58 89 88 108 94 138 108 138 64z m-341 -169 c-50 -44 -189 -125 -271 -159 -38
-15 -89 -41 -114 -59 -83 -57 -294 -146 -315 -134 -20 13 -6 27 54 52 66 29
357 173 547 273 63 33 120 59 125 59 6 0 -6 -14 -26 -32z m-7687 -77 c74 -49
82 -67 83 -200 0 -65 17 -249 39 -427 21 -171 36 -319 32 -328 -4 -12 -10 -14
-25 -6 -12 7 -20 26 -25 60 -9 69 -29 79 -25 12 2 -28 3 -51 1 -51 -11 0 -54
118 -66 180 -8 41 -27 139 -42 217 l-27 141 31 36 c40 46 45 68 40 174 -4 81
-21 142 -36 128 -3 -4 -9 -36 -13 -72 -13 -127 -47 -99 -56 46 -3 48 -3 95 0
104 9 24 38 19 89 -14z m355 6 c53 -46 5 -47 -57 -1 l-34 25 31 0 c19 0 43
-10 60 -24z m-73 -238 c46 -32 87 -62 91 -68 3 -5 10 -78 16 -162 5 -84 17
-205 25 -268 9 -63 20 -167 24 -232 11 -138 41 -344 81 -560 33 -179 35 -208
14 -208 -42 0 -114 271 -150 570 -9 74 -27 214 -40 310 -13 96 -29 240 -35
320 -14 173 -20 204 -45 209 -17 3 -18 -5 -11 -178 6 -159 5 -182 -9 -187 -29
-11 -45 15 -45 75 0 72 -26 295 -45 386 -8 39 -15 74 -15 78 0 10 20 -2 144
-85z m506 -43 c310 -163 378 -196 445 -220 37 -13 61 -27 63 -38 8 -40 -61
-15 -344 127 -281 141 -413 217 -422 245 -7 22 31 6 258 -114z m7048 -13 c5
-64 -170 -769 -211 -852 -37 -75 -67 -92 -67 -38 0 19 18 106 41 194 22 87 62
256 90 374 55 238 70 289 99 338 26 43 44 37 48 -16z m-1000 -49 c-5 -29 -268
-155 -268 -129 0 31 29 50 170 112 86 38 103 41 98 17z m-6329 -37 c23 -27 31
-83 41 -271 12 -218 48 -552 90 -835 43 -289 46 -340 26 -340 -32 0 -59 97
-95 346 -35 239 -132 1086 -127 1100 7 18 50 18 65 0z m7141 -21 c17 -21 7
-98 -36 -281 -19 -82 -46 -201 -59 -264 -14 -63 -38 -162 -54 -220 -16 -58
-32 -132 -36 -164 -4 -33 -11 -71 -17 -85 -12 -32 -47 -71 -65 -71 -28 0 -22
54 31 270 62 258 114 485 152 662 32 153 53 191 84 153z m-152 -139 c-6 -77
-109 -548 -162 -741 -42 -148 -54 -201 -65 -289 -6 -39 -17 -76 -27 -87 -17
-19 -64 -26 -64 -10 0 21 82 306 96 332 21 41 47 159 98 439 56 308 57 322 40
355 -15 29 -11 45 10 45 8 0 24 9 37 19 13 11 28 17 33 14 5 -3 6 -38 4 -77z
m-6793 34 c16 -17 20 -46 27 -163 25 -455 89 -984 139 -1142 26 -82 25 -225 0
-225 -48 0 -163 671 -221 1290 -11 118 -23 225 -26 238 -6 20 -3 22 28 22 22
0 42 -7 53 -20z m6065 -20 c-27 -51 -450 -203 -450 -162 0 7 10 18 23 26 56
36 373 155 415 156 20 0 21 -3 12 -20z m534 -38 c3 -5 -4 -36 -14 -70 -11 -34
-33 -137 -51 -229 -40 -219 -101 -494 -145 -663 -19 -74 -42 -171 -49 -214
-16 -85 -25 -102 -49 -93 -22 9 -20 36 14 185 32 141 171 842 190 958 14 87
40 134 74 134 14 0 27 -4 30 -8z m-6434 -36 c36 -18 92 -44 125 -56 l60 -23 1
-171 c2 -166 18 -367 50 -626 18 -149 90 -561 105 -608 7 -21 8 -37 2 -43 -14
-14 -59 6 -76 33 -51 80 -143 675 -167 1083 -16 259 -36 371 -64 362 -41 -14
10 -661 91 -1139 29 -178 34 -220 23 -233 -38 -46 -68 5 -85 147 -7 62 -23
154 -34 204 -45 200 -133 1040 -115 1089 8 20 10 20 84 -19z m6254 -87 c-2
-52 -105 -640 -128 -730 -14 -53 -41 -186 -61 -295 -36 -199 -52 -245 -89
-252 -21 -4 -21 26 -1 93 9 28 29 124 45 215 16 91 47 253 69 360 22 107 49
261 61 342 25 173 45 255 67 280 21 24 38 18 37 -13z m-5949 -60 c34 -30 35
-33 35 -103 0 -152 72 -694 146 -1090 57 -310 57 -332 -4 -281 -35 29 -68 101
-77 170 -4 28 -22 120 -40 205 -61 282 -111 667 -122 936 -8 210 -4 220 62
163z m5792 16 c14 -38 -108 -738 -183 -1049 -24 -98 -34 -159 -30 -181 11 -57
-28 -111 -60 -84 -17 14 -23 -28 71 459 41 206 85 452 99 545 15 94 31 195 37
225 16 82 50 125 66 85z m-6686 -101 c4 -22 22 -138 39 -259 17 -121 43 -277
57 -348 25 -130 25 -157 -1 -157 -25 0 -47 56 -56 143 -5 45 -23 163 -40 262
-32 183 -48 369 -36 401 9 24 25 6 37 -42z m5966 39 c5 -15 -21 -29 -70 -38
-48 -9 -48 5 1 33 39 23 63 25 69 5z m541 5 c17 -17 15 -164 -4 -300 -8 -62
-46 -269 -84 -459 -38 -190 -76 -396 -83 -458 -13 -105 -16 -114 -48 -147 -46
-48 -97 -77 -199 -113 -47 -16 -123 -43 -169 -61 -46 -17 -88 -27 -93 -22 -14
14 15 43 47 46 17 2 33 4 36 5 15 2 40 90 64 219 14 75 32 169 40 207 8 39 41
257 75 486 33 229 65 430 71 448 39 113 36 -157 -6 -462 -30 -224 -57 -369
-90 -481 -31 -108 -45 -194 -45 -284 0 -65 2 -73 18 -70 11 2 23 22 34 55 22
65 98 479 138 753 17 113 40 257 51 320 14 79 19 133 14 172 -3 33 -2 66 4 76
13 24 52 39 115 45 26 3 55 12 64 21 19 19 34 20 50 4z m-5415 -48 c35 -13 58
-29 65 -44 13 -28 25 -119 47 -341 21 -207 59 -493 90 -670 27 -155 47 -360
38 -394 -7 -28 -44 -28 -78 2 -22 19 -28 35 -35 97 -5 41 -18 116 -29 165 -44
197 -176 1205 -158 1205 4 0 30 -9 60 -20z m317 -100 c63 -18 140 -43 171 -56
36 -15 95 -27 165 -34 126 -13 139 -15 217 -41 32 -11 122 -33 199 -49 77 -16
143 -31 146 -34 3 -3 4 -84 3 -178 -4 -338 71 -1146 113 -1226 35 -66 33 28
-9 458 -45 449 -64 905 -39 930 8 8 29 8 78 -1 l66 -12 0 -244 c0 -142 6 -303
15 -386 15 -146 29 -389 41 -674 l6 -163 -79 6 c-124 9 -181 23 -214 52 -34
30 -17 -88 -134 932 -25 217 -49 408 -53 424 -9 34 -37 56 -50 41 -11 -12 68
-780 103 -1005 46 -293 50 -336 36 -354 -20 -24 -37 -19 -67 19 -64 85 -120
328 -159 690 -61 580 -93 765 -131 765 -48 0 5 -556 107 -1129 22 -123 39
-241 37 -260 l-3 -36 -53 0 c-32 1 -58 6 -67 16 -30 29 -108 456 -165 895 -42
322 -61 394 -75 282 -15 -119 25 -464 110 -948 30 -170 28 -190 -18 -190 -95
0 -115 69 -172 575 -14 127 -36 313 -49 415 -13 102 -29 229 -35 283 -12 103
-32 167 -52 167 -14 0 -12 -42 30 -445 32 -312 80 -689 105 -834 8 -47 13 -88
10 -93 -11 -18 -63 -8 -82 17 -45 56 -131 526 -177 960 -42 399 -47 481 -25
495 8 5 20 8 25 6 6 -2 62 -18 125 -36z m4628 -32 c17 -17 15 -60 -19 -366
-25 -226 -34 -282 -51 -310 -11 -18 -25 -31 -32 -29 -18 6 -19 119 -2 292 9
88 21 213 26 278 5 66 14 125 21 133 14 17 41 18 57 2z m-108 -21 c0 -7 -7
-22 -15 -33 -20 -30 -31 -111 -55 -399 -19 -232 -45 -480 -55 -515 -3 -8 -20
-106 -40 -218 -36 -209 -56 -277 -77 -270 -24 8 -19 104 16 334 43 275 49 330
81 687 36 391 45 427 110 427 22 0 35 -5 35 -13z m-200 -171 c0 -206 -65 -742
-126 -1041 l-24 -120 29 -60 c34 -70 29 -85 -31 -85 -31 0 -46 6 -68 30 -15
17 -37 30 -47 30 -21 0 -43 -37 -43 -70 0 -12 -9 -22 -24 -26 -36 -9 -49 2
-34 29 7 12 13 62 14 112 1 71 7 104 28 158 20 54 26 85 26 150 0 45 7 138 15
207 8 69 26 256 39 415 25 289 36 355 61 355 31 0 40 -97 26 -295 -12 -173
-50 -509 -82 -723 -10 -73 -19 -152 -19 -175 1 -101 42 -82 64 28 41 200 128
1096 113 1156 -3 12 -3 28 0 36 8 20 44 32 66 21 15 -8 17 -25 17 -132z m-326
19 c-1 -22 -11 -137 -23 -255 -43 -433 -60 -617 -66 -720 -4 -58 -15 -141 -25
-185 -31 -131 -30 -177 5 -209 l26 -24 -27 -21 c-31 -24 -86 -28 -104 -6 -9
11 -10 26 -2 62 6 27 13 116 17 198 3 83 12 188 20 235 9 46 24 179 35 295 55
580 64 641 104 667 25 18 41 3 40 -37z m-156 -100 c4 -116 -7 -271 -38 -550
-11 -93 -28 -267 -40 -385 -29 -304 -40 -349 -75 -320 -20 16 -19 58 5 313 45
487 66 987 40 987 -15 0 -27 -65 -40 -215 -6 -77 -22 -239 -35 -360 -37 -338
-55 -559 -55 -683 0 -62 -5 -122 -10 -133 -12 -22 -57 -26 -84 -6 -17 12 -16
24 8 257 14 135 42 409 61 610 45 475 56 541 96 566 19 12 113 32 139 31 25
-2 25 -3 28 -112z m-270 82 c7 -8 8 -28 2 -57 -5 -25 -19 -151 -30 -280 -12
-129 -30 -314 -41 -410 -39 -342 -59 -546 -59 -602 0 -76 -11 -102 -61 -138
-48 -34 -97 -39 -122 -12 -48 52 -47 245 3 682 17 146 35 344 41 440 17 289
31 355 79 355 l25 0 -2 -135 c-2 -123 -15 -274 -57 -635 -34 -292 -49 -656
-27 -670 17 -10 22 13 32 142 5 70 32 326 60 568 27 242 52 501 56 575 6 144
15 175 55 183 13 2 26 5 29 6 4 0 11 -5 17 -12z m-5058 -89 c26 -59 39 -158
22 -158 -30 0 -92 127 -92 189 0 61 37 44 70 -31z m2786 26 c19 -23 23 -102
40 -781 18 -686 18 -683 -25 -683 -29 0 -60 30 -71 68 -16 58 -29 237 -45 647
-18 446 -19 728 -5 756 9 16 18 18 53 13 23 -4 47 -13 53 -20z m1968 0 c9 -8
16 -18 16 -22 0 -3 -16 -146 -35 -317 -19 -170 -46 -438 -59 -595 -44 -499
-48 -520 -86 -520 -38 0 -45 35 -43 215 1 166 12 288 53 590 22 161 37 478 26
538 -7 39 -31 50 -40 20 -5 -18 -19 -151 -51 -478 -9 -88 -22 -199 -30 -246
-8 -47 -21 -200 -29 -340 -9 -176 -18 -265 -27 -285 -14 -27 -18 -29 -74 -29
-33 0 -70 -6 -82 -12 -12 -7 -35 -13 -52 -13 l-31 0 0 60 c0 65 27 393 61 740
13 126 22 295 23 408 l1 194 31 27 c26 24 43 29 110 35 43 4 124 15 179 25
128 24 121 24 139 5z m-1754 -24 l25 -6 8 -555 c8 -561 5 -840 -8 -871 -8 -21
-67 -25 -83 -5 -21 25 -32 98 -42 272 -15 252 -39 1110 -33 1137 11 45 42 52
133 28z m443 -32 c13 -7 17 -22 17 -74 0 -76 14 -78 23 -2 4 28 12 57 19 64 7
7 40 16 74 19 l61 7 -4 -373 c-6 -542 -20 -1020 -31 -1050 -21 -53 -66 -47
-82 11 -16 60 -28 307 -36 728 -3 216 -10 395 -14 397 -4 3 -11 -3 -15 -13
-11 -28 -24 -294 -25 -502 -1 -294 -16 -571 -33 -612 -14 -34 -45 -52 -64 -39
-29 18 -53 148 -53 289 0 34 -4 62 -9 62 -14 0 -21 -56 -21 -169 0 -133 -12
-178 -47 -187 -14 -4 -33 -2 -42 3 -42 26 -42 26 -39 748 2 380 7 696 11 703
7 10 40 11 150 6 78 -4 150 -11 160 -16z m779 -6 c-8 -39 -24 -247 -42 -547
-11 -187 -27 -429 -35 -539 -8 -109 -15 -239 -15 -288 l0 -91 -31 7 c-17 3
-47 6 -67 6 l-35 0 7 153 c4 83 11 223 17 310 10 163 2 224 -19 156 -18 -56
-31 -146 -42 -299 -14 -178 -26 -252 -51 -309 -18 -42 -21 -44 -36 -28 -28 27
-30 108 -22 637 10 629 23 753 84 810 24 23 38 26 138 31 140 7 153 7 149 -9z
m3258 4 c0 -27 -102 -311 -137 -381 -26 -52 -58 -92 -122 -155 -131 -128 -241
-206 -241 -170 0 5 25 38 56 72 63 70 74 92 67 130 -4 22 7 39 64 100 80 87
149 187 211 307 24 47 49 92 54 99 14 17 48 15 48 -2z m-3703 -26 c36 -77 43
-418 18 -910 -25 -492 -28 -510 -75 -510 -44 0 -45 8 -48 733 -2 378 -1 695 2
703 4 11 18 14 48 12 34 -2 45 -8 55 -28z m-3821 -157 c226 -256 388 -416 575
-567 511 -412 1356 -738 2269 -875 655 -98 1264 -95 1970 9 237 35 335 41 315
21 -27 -27 -643 -110 -1050 -143 -340 -27 -495 -27 -827 2 -476 40 -974 138
-1308 255 -52 18 -133 42 -180 53 -144 33 -430 152 -755 314 -347 173 -497
280 -756 538 -231 231 -372 411 -355 455 11 29 34 14 102 -62z m6071 -350 c-7
-118 -41 -322 -62 -380 -20 -51 -41 -71 -58 -54 -8 8 -5 44 16 149 15 76 27
160 27 188 0 27 4 64 10 83 9 33 57 111 68 111 3 0 2 -44 -1 -97z m983 -52
c-20 -29 -92 -91 -104 -91 -3 0 -6 7 -6 15 0 14 106 105 123 105 5 0 -1 -13
-13 -29z m-6847 -138 c185 -167 244 -213 487 -374 213 -142 347 -222 471 -285
52 -26 128 -66 169 -90 298 -170 1126 -379 1765 -444 171 -18 838 -24 1059
-11 596 37 1134 126 1511 249 165 54 424 149 438 160 7 5 37 17 67 25 152 44
666 356 797 484 30 29 88 76 129 104 80 55 154 129 154 154 0 21 -7 19 -49
-14 -52 -41 -78 -53 -86 -41 -13 21 186 213 214 208 55 -11 2 -226 -88 -366
-45 -69 -251 -255 -364 -328 -40 -25 -112 -74 -162 -107 -96 -65 -305 -177
-330 -177 -22 0 -172 -77 -229 -117 -27 -19 -58 -36 -70 -38 -12 -1 -95 -27
-186 -58 -193 -65 -374 -113 -480 -127 -41 -5 -106 -18 -144 -30 -39 -11 -102
-22 -140 -24 -112 -7 -368 -46 -406 -62 -19 -8 -84 -19 -145 -25 -60 -5 -173
-16 -250 -24 -77 -8 -270 -20 -430 -25 -159 -6 -344 -17 -409 -25 -101 -11
-130 -11 -190 0 -39 8 -138 19 -221 25 -304 22 -394 35 -635 95 -74 19 -204
45 -288 60 -226 39 -312 63 -577 165 -356 138 -588 245 -725 335 -36 24 -77
46 -90 50 -14 3 -68 38 -120 76 -52 39 -104 74 -115 79 -44 18 -368 317 -390
360 -36 69 19 40 172 -91 152 -130 316 -253 445 -335 143 -90 590 -309 788
-387 482 -190 1019 -309 1608 -357 167 -14 398 -18 437 -7 58 16 1 26 -202 37
-298 14 -658 55 -903 101 -206 40 -596 148 -770 216 -63 24 -158 57 -211 73
-61 18 -134 50 -200 88 -57 32 -196 108 -309 167 -113 59 -225 121 -250 138
-112 77 -396 295 -490 378 -58 50 -128 104 -156 120 -70 40 -86 61 -92 119 -4
42 -2 50 12 50 9 0 90 -66 179 -147z m6667 -107 c0 -17 -46 -56 -66 -56 -22 0
-16 16 17 44 34 29 49 33 49 12z m-5926 -81 c139 -72 364 -174 453 -204 32
-11 91 -33 131 -50 85 -36 471 -153 692 -210 186 -49 345 -82 580 -121 405
-67 377 -65 860 -63 245 1 526 6 625 13 270 16 739 86 1083 162 78 17 145 28
149 25 31 -32 -155 -97 -442 -156 -434 -89 -716 -110 -1525 -114 -402 -2 -432
-1 -553 21 -290 51 -754 156 -1018 232 -348 99 -514 164 -898 351 -215 104
-291 149 -291 170 0 19 34 7 154 -56z m5030 -321 c9 -3 16 -15 16 -26 0 -18
-5 -20 -37 -15 -41 7 -59 20 -49 36 8 12 45 15 70 5z m-259 -64 c9 -15 -30
-48 -71 -59 -66 -18 -65 10 1 51 33 20 61 23 70 8z m-125 -160 c0 -16 -23 -22
-71 -18 -42 4 -43 4 -19 15 32 15 90 16 90 3z m-3628 -124 l33 -14 -40 -1
c-50 -1 -115 16 -115 31 0 14 77 4 122 -16z"/>
<path d="M1653 12300 c-117 -31 -308 -130 -250 -130 53 0 337 119 337 141 0
12 -2 11 -87 -11z"/>
<path d="M1705 10421 c10 -17 215 -92 268 -98 47 -6 51 -5 39 10 -16 19 -51
31 -152 52 -41 9 -85 22 -97 30 -25 17 -68 20 -58 6z"/>
<path d="M2107 10279 c55 -25 181 -61 458 -131 103 -26 449 -91 680 -128 393
-63 786 -96 1058 -87 339 10 238 30 -288 57 -607 31 -943 81 -1516 225 -227
57 -402 95 -431 94 -16 0 -3 -10 39 -30z"/>
<path d="M1445 10029 c17 -27 194 -109 263 -122 54 -11 36 7 -56 56 -81 43
-219 87 -207 66z"/>
<path d="M1920 9831 c17 -10 393 -128 510 -160 41 -12 88 -21 105 -20 31 1
-186 76 -434 149 -124 37 -219 53 -181 31z"/>
<path d="M2940 9691 c0 -25 425 -94 830 -135 175 -18 558 -30 517 -17 -33 11
-438 61 -782 97 -137 14 -317 34 -400 45 -175 22 -165 21 -165 10z"/>
<path d="M2820 9592 c0 -15 87 -42 137 -42 88 0 29 37 -74 47 -41 4 -63 2 -63
-5z"/>
<path d="M3310 9501 c-22 -7 -17 -9 30 -19 94 -20 307 -35 327 -23 16 9 16 10
-7 19 -14 5 -87 12 -163 16 -76 4 -144 9 -150 11 -7 1 -23 0 -37 -4z"/>
<path d="M4140 9441 c-262 -11 -81 -25 337 -25 344 -1 408 2 391 19 -8 8 -567
13 -728 6z"/>
<path d="M445 10298 c-17 -61 -104 -561 -98 -567 9 -12 27 24 49 100 33 113
84 367 91 451 5 58 4 68 -10 68 -11 0 -21 -17 -32 -52z"/>
<path d="M1184 9922 c-28 -18 -39 -81 -75 -436 -76 -758 -106 -1422 -67 -1462
13 -12 26 7 32 48 3 24 10 153 16 288 13 302 31 544 70 917 28 267 40 396 55
564 5 67 -6 97 -31 81z"/>
<path d="M1306 9818 c-3 -13 -7 -61 -11 -108 -3 -47 -19 -202 -35 -345 -79
-696 -119 -1380 -82 -1417 11 -11 16 -10 27 5 17 23 22 91 35 427 16 398 59
956 100 1289 11 85 17 158 14 163 -11 17 -44 8 -48 -14z"/>
<path d="M1441 9756 c-22 -55 -96 -865 -121 -1316 -12 -212 -11 -533 3 -546
23 -23 33 46 47 321 25 513 31 593 59 850 57 509 65 715 30 715 -5 0 -14 -11
-18 -24z"/>
<path d="M1811 9548 c-51 -161 -137 -1721 -95 -1735 19 -6 23 39 34 341 6 159
19 364 30 455 47 401 78 971 52 971 -6 0 -15 -15 -21 -32z"/>
<path d="M317 9486 c-15 -100 -20 -246 -9 -246 16 0 24 71 20 190 -3 91 -4 98
-11 56z"/>
<path d="M2018 9470 c-28 -60 -51 -280 -93 -895 -30 -427 -41 -753 -28 -810
12 -55 38 -59 53 -8 7 23 14 211 20 473 7 339 12 447 24 490 8 30 20 117 26
195 12 148 10 581 -2 555z"/>
<path d="M2441 9463 c-14 -27 -19 -78 -47 -433 -39 -515 -54 -783 -61 -1107
-6 -272 -4 -304 11 -327 19 -30 41 -34 51 -8 4 9 13 159 21 332 8 173 27 479
44 680 52 639 58 800 35 863 -9 22 -42 22 -54 0z"/>
<path d="M2217 9463 c-5 -7 -12 -75 -17 -150 -5 -76 -14 -186 -21 -245 -11
-96 -11 -109 5 -132 39 -61 45 -36 52 218 6 204 -3 335 -19 309z"/>
<path d="M6103 9354 c-6 -17 0 -279 17 -664 5 -124 14 -436 20 -695 10 -458
14 -530 30 -540 18 -11 21 70 20 569 0 726 -19 1203 -51 1303 -13 39 -27 50
-36 27z"/>
<path d="M2666 9293 c-15 -69 -26 -199 -36 -424 -12 -240 -7 -359 11 -312 18
48 49 465 49 661 0 97 -12 133 -24 75z"/>
<path d="M3235 9273 c-23 -126 -37 -884 -16 -897 5 -4 12 6 15 21 14 63 26
346 26 615 0 266 -8 351 -25 261z"/>
<path d="M2858 9275 c-39 -158 -102 -1693 -68 -1659 6 6 14 155 20 365 5 194
16 404 24 464 28 208 48 929 24 830z"/>
<path d="M5814 9244 c-19 -153 34 -1799 57 -1762 29 45 -11 1781 -41 1812 -4
4 -12 -18 -16 -50z"/>
<path d="M3037 9223 c-4 -27 -11 -149 -17 -273 -6 -124 -18 -328 -26 -455 -18
-275 -30 -872 -19 -969 19 -183 44 94 54 610 4 209 11 385 14 391 3 5 11 122
17 259 10 239 5 484 -10 484 -4 0 -10 -21 -13 -47z"/>
<path d="M5654 9148 c3 -68 13 -388 21 -713 21 -863 30 -1071 48 -1039 14 24
12 885 -3 1284 -16 442 -32 590 -62 590 -8 0 -9 -38 -4 -122z"/>
<path d="M5336 9202 c-3 -6 -2 -150 3 -319 6 -169 13 -447 16 -618 7 -365 23
-782 31 -844 6 -38 8 -41 18 -25 14 25 12 942 -3 1314 -13 305 -42 529 -65
492z"/>
<path d="M4036 9051 c-22 -35 -33 -478 -12 -498 33 -34 52 146 37 360 -9 137
-13 158 -25 138z"/>
<path d="M4406 9015 c-13 -30 -21 -675 -8 -675 17 0 23 146 20 430 -2 166 -6
258 -12 245z"/>
<path d="M3420 8960 c-2 -3 -7 -129 -11 -280 -4 -151 -11 -297 -14 -325 -5
-48 6 -87 21 -72 13 13 23 178 23 387 0 174 -9 308 -19 290z"/>
<path d="M4217 8852 c-10 -62 -29 -604 -22 -631 21 -85 47 151 49 443 1 153
-2 220 -10 223 -6 2 -14 -13 -17 -35z"/>
<path d="M4776 8881 c-12 -19 -21 -1180 -10 -1376 l8 -160 7 95 c4 52 7 176 8
275 2 248 17 488 31 515 9 18 8 47 -5 139 -9 64 -20 208 -24 321 -3 124 -9
200 -15 191z"/>
<path d="M2172 8759 c-45 -235 -78 -1089 -42 -1089 12 0 19 107 30 460 6 184
16 358 22 385 15 71 22 275 10 287 -7 7 -14 -8 -20 -43z"/>
<path d="M3837 8650 c-24 -217 -48 -1123 -29 -1105 11 10 20 140 44 620 12
247 11 385 -1 490 l-7 60 -7 -65z"/>
<path d="M4588 8550 c-26 -86 -35 -1167 -11 -1191 8 -8 13 4 18 42 8 76 2
1180 -7 1149z"/>
<path d="M2606 8417 c-25 -136 -47 -739 -28 -751 8 -4 16 3 22 18 21 57 41
748 21 760 -5 3 -11 -9 -15 -27z"/>
<path d="M3186 8259 c-3 -13 -8 -118 -11 -233 -4 -116 -11 -246 -16 -290 -21
-171 -22 -259 -5 -301 16 -37 18 -38 34 -22 15 15 18 55 25 320 8 308 3 525
-13 541 -5 5 -11 -1 -14 -15z"/>
<path d="M4383 8173 c-11 -52 -9 -702 2 -788 l9 -70 8 70 c11 110 22 683 14
758 -8 75 -21 86 -33 30z"/>
<path d="M4007 8110 c-10 -37 -27 -411 -26 -584 0 -155 7 -203 25 -175 9 14
20 696 12 754 -4 30 -4 30 -11 5z"/>
<path d="M4196 8048 c-11 -53 -18 -715 -8 -698 27 44 49 697 25 721 -7 7 -13
0 -17 -23z"/>
<path d="M3387 7857 c-10 -27 -9 -415 2 -421 5 -3 12 48 15 117 7 132 -4 334
-17 304z"/>
<path d="M7736 9824 c-10 -27 -7 -83 23 -339 45 -380 59 -546 81 -960 21 -408
27 -474 41 -496 22 -34 29 25 29 261 0 227 -16 594 -40 920 -41 556 -53 630
-103 630 -14 0 -28 -7 -31 -16z"/>
<path d="M7127 9613 c-15 -14 -6 -149 28 -423 48 -397 62 -552 75 -805 6 -121
15 -307 20 -414 5 -107 14 -199 19 -204 18 -18 40 13 46 67 7 55 -8 503 -26
741 -35 491 -90 905 -133 1010 -16 37 -18 39 -29 28z"/>
<path d="M6976 9555 c-11 -30 -6 -120 19 -357 50 -467 75 -751 100 -1116 14
-205 28 -379 31 -387 9 -23 23 -18 31 13 12 42 8 608 -6 777 -29 367 -91 861
-122 985 -21 81 -41 114 -53 85z"/>
<path d="M270 8261 c0 -38 237 -208 258 -186 10 10 -83 92 -167 147 -74 48
-91 56 -91 39z"/>
<path d="M300 8101 c0 -21 149 -126 337 -239 157 -94 337 -186 463 -237 63
-26 133 -55 155 -65 61 -27 366 -130 384 -130 27 1 -52 38 -217 101 -178 68
-629 289 -772 378 -172 107 -331 201 -340 201 -6 0 -10 -4 -10 -9z"/>
<path d="M589 8016 c15 -18 212 -118 219 -111 3 3 3 6 1 8 -2 2 -22 17 -44 34
-78 60 -212 112 -176 69z"/>
<path d="M1710 7400 c6 -11 23 -22 38 -26 54 -12 68 -16 127 -39 116 -45 539
-161 728 -200 545 -110 933 -172 1167 -185 164 -10 325 -4 299 10 -8 4 -86 13
-174 19 -383 29 -535 49 -825 114 -85 19 -258 54 -385 77 -275 51 -502 107
-763 189 -216 68 -228 71 -212 41z"/>
<path d="M174 7893 c-10 -23 -18 -538 -9 -560 6 -16 8 -16 16 4 11 31 38 264
46 405 5 100 4 121 -11 142 -19 30 -31 33 -42 9z"/>
<path d="M144 6543 c-4 -48 -4 -275 0 -503 6 -397 18 -597 35 -628 14 -25 23
74 17 182 -4 56 -13 310 -22 566 -8 255 -17 466 -19 468 -2 2 -6 -36 -11 -85z"/>
<path d="M179 5144 c-7 -19 -9 -62 -5 -119 3 -49 10 -173 16 -275 10 -204 34
-408 50 -424 29 -29 31 27 7 214 -9 74 -24 245 -31 379 -8 133 -17 245 -20
248 -3 3 -11 -7 -17 -23z"/>
<path d="M603 7605 c-9 -23 -9 -142 0 -151 16 -16 27 14 27 74 0 74 -13 111
-27 77z"/>
<path d="M746 7533 c-10 -33 -47 -636 -53 -858 -7 -272 12 -1291 32 -1715 44
-934 87 -1370 134 -1370 25 0 33 32 27 102 -3 40 -13 208 -21 373 -9 165 -22
426 -30 580 -29 542 -33 800 -28 1821 4 567 3 1043 -1 1057 -5 20 -13 27 -31
27 -14 0 -26 -7 -29 -17z"/>
<path d="M1083 7385 c-27 -47 -35 -222 -40 -822 -11 -1329 64 -3064 136 -3136
32 -32 38 35 21 245 -12 151 -37 500 -55 788 -21 319 -35 982 -43 2020 -5 714
-10 920 -19 905z"/>
<path d="M1625 7103 c-14 -31 -18 -818 -6 -1363 29 -1321 82 -2393 120 -2433
16 -17 21 94 11 259 -6 93 -15 241 -20 329 -22 356 -31 744 -45 1875 -9 652
-19 1218 -24 1258 -9 79 -23 106 -36 75z"/>
<path d="M2046 6953 c-3 -49 -9 -457 -12 -908 -6 -789 -3 -936 23 -978 29 -47
40 195 23 544 -12 249 -12 297 3 456 11 111 17 269 17 418 -1 406 -36 712 -54
468z"/>
<path d="M4242 6628 c-6 -51 -16 -122 -23 -158 -9 -49 -9 -72 0 -94 17 -42 31
-22 41 60 12 88 13 284 2 284 -5 0 -14 -42 -20 -92z"/>
<path d="M4037 6690 c-8 -32 -27 -535 -33 -890 -5 -283 3 -330 26 -155 11 87
27 993 18 1045 l-4 25 -7 -25z"/>
<path d="M3356 6675 c-19 -48 -30 -415 -18 -647 6 -127 14 -233 17 -236 16
-17 20 44 23 386 3 368 -4 540 -22 497z"/>
<path d="M4868 6635 c-8 -25 -14 -441 -9 -670 l4 -170 8 95 c10 109 7 775 -3
745z"/>
<path d="M3825 6610 c-14 -22 -24 -222 -35 -655 -5 -247 -17 -668 -26 -935
-13 -376 -15 -673 -11 -1323 2 -461 7 -841 11 -844 3 -4 9 -3 12 0 4 4 11 399
15 879 9 935 26 1715 40 1893 14 187 24 981 11 989 -6 3 -14 2 -17 -4z"/>
<path d="M4678 6575 c-18 -28 -37 -395 -58 -1097 -18 -614 -10 -850 19 -588
31 279 65 1723 39 1685z"/>
<path d="M2948 6554 c-33 -51 -52 -814 -45 -1814 7 -940 24 -1462 53 -1691 15
-111 48 -84 39 31 -54 683 -65 1605 -35 2955 8 381 5 545 -12 519z"/>
<path d="M4437 6304 c-4 -98 -16 -447 -27 -774 -11 -327 -24 -721 -30 -875
-13 -359 -13 -546 0 -523 6 9 15 96 20 194 6 97 15 206 21 243 5 36 14 269 19
516 6 248 15 475 20 505 14 70 25 616 15 754 -4 57 -12 112 -19 122 -11 14
-14 -15 -19 -162z"/>
<path d="M4225 6263 c-8 -19 -17 -241 -36 -893 -14 -502 -11 -645 16 -619 32
33 70 1515 39 1526 -6 2 -15 -4 -19 -14z"/>
<path d="M4848 5700 c-23 -77 -40 -656 -19 -634 6 5 15 88 21 184 12 186 10
493 -2 450z"/>
<path d="M3355 5658 c-21 -60 -47 -1958 -28 -2093 7 -51 11 -60 30 -63 17 -3
24 3 29 22 3 14 0 153 -7 308 -8 189 -12 541 -10 1061 2 427 0 777 -3 777 -4
0 -9 -6 -11 -12z"/>
<path d="M3987 5245 c-19 -58 -37 -1439 -18 -1420 15 16 32 422 37 905 5 422
0 572 -19 515z"/>
<path d="M2707 4944 c-23 -24 10 -1365 44 -1768 11 -130 21 -176 38 -176 16 0
19 62 10 175 -25 309 -30 432 -39 930 -11 629 -26 866 -53 839z"/>
<path d="M4813 4923 c-15 -26 -17 -103 -3 -103 14 0 22 40 18 86 -3 37 -4 38
-15 17z"/>
<path d="M2043 4863 c-12 -56 -8 -653 6 -908 26 -477 58 -840 82 -913 6 -18
16 -31 22 -29 16 5 14 80 -6 262 -26 234 -40 519 -58 1180 -10 372 -15 445
-30 445 -4 0 -12 -17 -16 -37z"/>
<path d="M4797 4634 c-15 -93 -49 -818 -42 -901 11 -126 21 -83 34 143 13 227
26 794 19 794 -3 0 -8 -16 -11 -36z"/>
<path d="M4186 4619 c-12 -41 -12 -184 -1 -187 14 -4 26 117 16 169 -7 40 -9
42 -15 18z"/>
<path d="M3116 4413 c-8 -214 8 -1053 24 -1277 11 -152 19 -186 46 -186 11 0
14 8 10 33 -6 33 -19 402 -36 1027 -12 421 -20 590 -30 590 -4 0 -10 -84 -14
-187z"/>
<path d="M4586 4461 c-19 -153 -36 -579 -34 -851 1 -158 1 -167 9 -95 5 44 19
163 30 265 24 206 39 794 22 811 -6 6 -16 -41 -27 -130z"/>
<path d="M4165 4333 c-11 -28 -17 -428 -8 -532 8 -91 22 -123 37 -84 12 29 18
429 9 532 -8 91 -22 123 -38 84z"/>
<path d="M4356 3978 c-33 -325 -58 -1137 -36 -1202 25 -76 33 -23 41 266 5
156 13 423 19 593 10 291 7 405 -10 405 -4 0 -10 -28 -14 -62z"/>
<path d="M4732 3540 c-16 -68 -37 -426 -28 -473 4 -20 11 -37 16 -37 18 0 29
71 35 240 12 285 3 383 -23 270z"/>
<path d="M4136 3378 c-10 -91 -19 -495 -12 -514 7 -17 9 -17 18 6 14 34 24
560 11 560 -6 0 -13 -24 -17 -52z"/>
<path d="M3358 3399 c-9 -18 -13 -73 -13 -209 0 -164 2 -189 18 -214 12 -18
22 -25 28 -19 15 15 7 439 -8 454 -8 8 -14 5 -25 -12z"/>
<path d="M4537 3173 c-13 -20 -26 -152 -27 -257 0 -128 26 -220 44 -153 8 30
6 321 -2 377 -4 26 -10 40 -15 33z"/>
<path d="M6855 6996 c-8 -19 -19 -96 -26 -172 -13 -164 -18 -1008 -6 -1021 26
-25 48 68 69 297 13 149 18 858 5 903 -10 36 -25 34 -42 -7z"/>
<path d="M5587 6683 c-12 -74 -27 -334 -42 -708 -41 -1006 -61 -1392 -110
-2090 -40 -564 -56 -1035 -36 -1035 10 0 21 73 21 144 0 28 7 82 15 120 8 38
17 110 20 160 4 50 15 163 25 251 10 88 21 261 25 385 3 124 12 317 20 430 8
113 21 342 30 510 8 168 22 438 30 600 36 693 44 1040 28 1203 -7 74 -17 87
-26 30z"/>
<path d="M5407 6692 c-5 -7 -15 -193 -23 -415 -8 -221 -25 -591 -39 -822 -13
-231 -32 -548 -40 -705 -39 -715 -57 -1019 -80 -1335 -35 -473 -41 -630 -26
-640 7 -4 17 -3 23 3 6 6 19 111 29 234 10 123 30 315 44 428 16 129 25 257
25 345 0 77 9 259 19 405 11 146 25 411 31 590 6 179 18 463 26 633 36 764 40
1326 11 1279z"/>
<path d="M5236 6567 c-14 -101 -25 -337 -37 -772 -11 -390 -10 -489 6 -473 13
13 36 290 45 548 18 524 10 884 -14 697z"/>
<path d="M5166 5229 c-12 -74 -26 -290 -46 -719 -28 -574 -48 -908 -65 -1069
-29 -257 -32 -659 -5 -611 10 20 27 178 45 440 9 118 22 274 31 345 20 178 33
433 34 660 1 105 5 280 10 390 19 410 23 605 13 605 -6 0 -13 -18 -17 -41z"/>
<path d="M2400 2601 c39 -24 344 -101 399 -101 108 0 -75 60 -274 89 -38 6
-86 13 -105 16 -24 4 -30 2 -20 -4z"/>
<path d="M5315 2463 c-153 -20 -321 -46 -338 -53 -20 -8 -19 -9 8 -10 103 -5
366 26 455 54 l45 14 -70 0 c-38 -1 -83 -3 -100 -5z"/>
<path d="M3328 2444 c-33 -10 -18 -21 35 -27 28 -4 106 -9 172 -11 l120 -6
-85 20 c-90 20 -213 32 -242 24z"/>
<path d="M364 2973 c4 -38 9 -96 12 -130 4 -34 12 -70 20 -80 12 -16 13 -11
14 37 0 50 -11 138 -26 213 -3 15 -10 27 -16 27 -7 0 -8 -23 -4 -67z"/>
<path d="M7016 2580 c-27 -33 -32 -52 -41 -170 -4 -41 -17 -124 -31 -185 -13
-60 -42 -216 -64 -346 -22 -129 -53 -306 -70 -393 -42 -223 -39 -273 14 -203
46 60 73 147 125 393 107 506 156 844 132 907 -14 35 -33 34 -65 -3z"/>
<path d="M4966 2113 c-7 -27 -15 -115 -31 -368 -15 -226 -37 -483 -55 -660
-12 -116 -13 -265 -1 -265 5 0 12 8 15 18 26 83 124 1191 112 1258 -7 36 -31
46 -40 17z"/>
<path d="M3804 2085 c-8 -21 13 -906 22 -929 18 -46 27 43 31 329 5 273 -5
524 -23 593 -7 25 -22 29 -30 7z"/>
<path d="M4577 2083 c-11 -18 -21 -284 -12 -319 7 -28 7 -28 16 -7 23 61 19
363 -4 326z"/>
<path d="M4566 1665 c-9 -25 -7 -138 4 -155 15 -25 33 38 27 99 -6 58 -20 83
-31 56z"/>
<path d="M7638 1213 c-19 -16 -69 -55 -110 -89 -108 -87 -349 -247 -523 -347
-131 -75 -399 -197 -520 -237 -22 -7 -87 -34 -145 -60 -58 -26 -122 -52 -142
-59 -21 -7 -38 -17 -38 -22 0 -37 178 1 387 83 269 105 623 310 928 538 124
93 225 187 225 210 0 18 -25 11 -62 -17z"/>
<path d="M6005 370 c-38 -11 -124 -34 -190 -51 -131 -34 -161 -49 -99 -49 123
0 401 74 391 104 -6 17 -27 16 -102 -4z"/>
<path d="M4887 163 c-4 -3 -7 -11 -7 -16 0 -14 147 -4 162 11 9 9 -5 12 -68
12 -45 0 -84 -3 -87 -7z"/>
<path d="M4487 140 c-48 -4 -90 -10 -94 -13 -13 -13 320 -12 362 1 15 4 11 8
-20 13 -47 9 -126 9 -248 -1z"/>
</g>
</svg>
